<svg width="104" height="104" viewBox="0 0 104 104" fill="none" xmlns="http://www.w3.org/2000/svg">
<path fill-rule="evenodd" clip-rule="evenodd" d="M47.424 5.41663H56.576C64.5407 5.41663 70.85 5.41663 75.7857 6.07963C80.8643 6.76429 84.9767 8.20296 88.2223 11.4443C88.7964 12.0604 89.1089 12.8753 89.0941 13.7172C89.0792 14.5592 88.7382 15.3625 88.1427 15.958C87.5472 16.5534 86.7439 16.8945 85.9019 16.9094C85.06 16.9242 84.2451 16.6117 83.629 16.0376C81.7917 14.209 79.2783 13.1083 74.919 12.5233C70.4687 11.9253 64.597 11.9166 56.3333 11.9166H47.6667C39.403 11.9166 33.5357 11.9253 29.0767 12.5233C24.7217 13.1083 22.2083 14.209 20.3753 16.042C18.5423 17.875 17.4417 20.3883 16.8567 24.7433C16.2587 29.2023 16.25 35.0696 16.25 43.3333V60.6666C16.25 68.9303 16.2587 74.802 16.8567 79.2566C17.4417 83.6116 18.5423 86.125 20.3753 87.958C22.2083 89.791 24.7217 90.8916 29.081 91.4766C33.5357 92.0746 39.403 92.0833 47.6667 92.0833H56.3333C64.597 92.0833 70.4687 92.0746 74.9233 91.4766C79.2783 90.8916 81.7917 89.791 83.6247 87.958C86.6407 84.942 87.555 80.2576 87.711 69.2856C87.7236 68.4237 88.0782 67.602 88.6966 67.0015C89.0028 66.7041 89.3646 66.47 89.7613 66.3124C90.158 66.1549 90.5819 66.077 91.0087 66.0833C91.4355 66.0895 91.8569 66.1798 92.2488 66.3489C92.6407 66.518 92.9954 66.7627 93.2928 67.0689C93.5902 67.3751 93.8243 67.7369 93.9819 68.1336C94.1394 68.5303 94.2173 68.9542 94.211 69.381C94.0593 79.898 93.379 87.3989 88.2223 92.5556C84.9767 95.7969 80.8643 97.2356 75.7857 97.9203C70.8457 98.5833 64.5407 98.5833 56.576 98.5833H47.424C39.4593 98.5833 33.15 98.5833 28.2143 97.9203C23.1357 97.2356 19.0233 95.7969 15.7777 92.5556C12.5363 89.3099 11.0977 85.1976 10.413 80.119C9.75 75.179 9.75 68.874 9.75 60.9093V43.0906C9.75 35.126 9.75 28.8166 10.413 23.881C11.0977 18.8023 12.5363 14.69 15.7777 11.4443C19.0233 8.20296 23.1357 6.76429 28.2143 6.07963C33.1543 5.41663 39.4593 5.41663 47.424 5.41663ZM78.494 30.5326C79.5773 29.3987 80.8762 28.4926 82.3145 27.8677C83.7529 27.2429 85.3016 26.9117 86.8697 26.8938C88.4378 26.8759 89.9937 27.1715 91.446 27.7633C92.8982 28.3552 94.2176 29.2313 95.3265 30.3402C96.4353 31.4491 97.3114 32.7684 97.9033 34.2207C98.4951 35.6729 98.7908 37.2288 98.7728 38.7969C98.7549 40.365 98.4238 41.9137 97.7989 43.3521C97.174 44.7904 96.268 46.0894 95.134 47.1726L74.5333 67.7863C73.6764 68.6894 72.7647 69.5389 71.8033 70.33C70.8038 71.11 69.7291 71.7744 68.5793 72.3233C67.6087 72.787 66.586 73.125 65.0867 73.6233L56.056 76.635C55.0781 76.9621 54.0284 77.0103 53.0247 76.7739C52.021 76.5376 51.1031 76.0261 50.374 75.297C49.6448 74.5679 49.1334 73.6499 48.897 72.6462C48.6607 71.6425 48.7088 70.5928 49.036 69.615L51.987 60.775L52.0477 60.5886C52.5503 59.085 52.8883 58.0666 53.352 57.096C53.8966 55.9516 54.565 54.8705 55.3453 53.872C56.0083 53.0226 56.7667 52.2643 57.889 51.142L58.0233 51.0076L78.494 30.5326ZM90.5407 35.126C90.0513 34.6364 89.4704 34.2481 88.8309 33.9832C88.1915 33.7183 87.5061 33.5819 86.814 33.5819C86.1219 33.5819 85.4365 33.7183 84.7971 33.9832C84.1576 34.2481 83.5767 34.6364 83.0873 35.126L82.2987 35.9146L82.446 36.3783C82.8533 37.5483 83.629 39.1083 85.0937 40.573C86.3897 41.8777 87.9908 42.8385 89.752 43.368L90.5407 42.5793C91.0302 42.09 91.4185 41.509 91.6834 40.8696C91.9483 40.2301 92.0847 39.5448 92.0847 38.8526C92.0847 38.1605 91.9483 37.4751 91.6834 36.8357C91.4185 36.1963 91.0302 35.6153 90.5407 35.126ZM84.786 48.334C83.2015 47.507 81.7544 46.4399 80.496 45.1706C79.2267 43.9123 78.1596 42.4652 77.3327 40.8806L62.6167 55.5966C61.3123 56.901 60.853 57.369 60.4673 57.863C59.9762 58.4927 59.5588 59.1673 59.215 59.8866C58.9463 60.4543 58.734 61.074 58.149 62.8246L56.4157 68.0246L57.642 69.251L62.842 67.5176C64.5927 66.9326 65.2123 66.7203 65.78 66.4516C66.4964 66.105 67.171 65.6875 67.8037 65.1993C68.2977 64.8136 68.7657 64.3543 70.07 63.05L84.786 48.334ZM31.4167 39C31.4167 38.138 31.7591 37.3114 32.3686 36.7019C32.9781 36.0924 33.8047 35.75 34.6667 35.75H62.8333C63.6953 35.75 64.5219 36.0924 65.1314 36.7019C65.7409 37.3114 66.0833 38.138 66.0833 39C66.0833 39.8619 65.7409 40.6886 65.1314 41.2981C64.5219 41.9075 63.6953 42.25 62.8333 42.25H34.6667C33.8047 42.25 32.9781 41.9075 32.3686 41.2981C31.7591 40.6886 31.4167 39.8619 31.4167 39ZM31.4167 56.3333C31.4167 55.4713 31.7591 54.6447 32.3686 54.0352C32.9781 53.4257 33.8047 53.0833 34.6667 53.0833H45.5C46.362 53.0833 47.1886 53.4257 47.7981 54.0352C48.4076 54.6447 48.75 55.4713 48.75 56.3333C48.75 57.1952 48.4076 58.0219 47.7981 58.6314C47.1886 59.2409 46.362 59.5833 45.5 59.5833H34.6667C33.8047 59.5833 32.9781 59.2409 32.3686 58.6314C31.7591 58.0219 31.4167 57.1952 31.4167 56.3333ZM31.4167 73.6666C31.4167 72.8047 31.7591 71.978 32.3686 71.3685C32.9781 70.759 33.8047 70.4166 34.6667 70.4166H41.1667C42.0286 70.4166 42.8553 70.759 43.4648 71.3685C44.0743 71.978 44.4167 72.8047 44.4167 73.6666C44.4167 74.5286 44.0743 75.3552 43.4648 75.9647C42.8553 76.5742 42.0286 76.9166 41.1667 76.9166H34.6667C33.8047 76.9166 32.9781 76.5742 32.3686 75.9647C31.7591 75.3552 31.4167 74.5286 31.4167 73.6666Z" fill="black"/>
</svg>
