<svg width="101" height="101" viewBox="0 0 101 101" fill="none" xmlns="http://www.w3.org/2000/svg">
<path d="M16.8334 27.9139C17.4226 27.6754 18.1282 27.4215 18.9502 27.1522C23.0302 25.8679 27.2853 25.2262 31.5626 25.25C35.8399 25.2262 40.0949 25.8679 44.175 27.1522C44.997 27.4215 45.7026 27.6754 46.2917 27.9139V73.7006C41.5184 72.2449 36.5529 71.5171 31.5626 71.5417C25.4184 71.5417 20.4147 72.5854 16.8334 73.7006V27.9139ZM50.5001 20.5577C49.2802 20.0196 48.0328 19.5462 46.7631 19.1395C41.8467 17.5864 36.7184 16.8083 31.5626 16.8334C25.1407 16.8334 19.9686 17.9738 16.3621 19.1395C14.9266 19.6009 13.5199 20.1475 12.1495 20.7766C11.6405 21.0123 11.1394 21.265 10.6472 21.5341L10.542 21.593L10.5041 21.614L10.4915 21.6225C10.483 21.6309 9.44779 22.2411 10.4788 21.6309C9.85062 22.0033 9.33016 22.5329 8.96861 23.1674C8.60706 23.802 8.41688 24.5197 8.41675 25.25V79.9584C8.41688 80.7012 8.6136 81.4307 8.98694 82.0728C9.36028 82.715 9.89693 83.2469 10.5424 83.6145C11.1878 83.9821 11.9191 84.1723 12.6618 84.1658C13.4046 84.1593 14.1324 83.9564 14.7713 83.5775L14.7503 83.5902L14.7629 83.586L14.7671 83.5817L14.9228 83.4976C15.0799 83.4134 15.3352 83.2872 15.6887 83.1188C16.4042 82.7906 17.4983 82.3277 18.9502 81.8563C23.0305 80.5735 27.2855 79.9332 31.5626 79.9584C35.8397 79.9332 40.0947 80.5735 44.175 81.8563C45.2861 82.2122 46.3752 82.6338 47.4364 83.1188C47.7541 83.2661 48.067 83.4233 48.3749 83.5902M48.3749 83.5902L48.3665 83.586L48.3622 83.5817C49.6837 84.3603 51.3249 84.3603 52.6463 83.5817L52.802 83.4976C52.9591 83.4134 53.2145 83.2872 53.568 83.1188C54.6291 82.6338 55.7182 82.2122 56.8294 81.8563C60.9083 80.5739 65.1619 79.9336 69.4376 79.9584C73.7147 79.9332 77.9697 80.5735 82.0499 81.8563C83.1611 82.2122 84.2502 82.6338 85.3114 83.1188C85.6233 83.2637 85.9306 83.4181 86.233 83.5817C86.8722 83.9597 87.5999 84.1618 88.3424 84.1676C89.0849 84.1733 89.8157 83.9825 90.4606 83.6146C91.1056 83.2466 91.6417 82.7145 92.0145 82.0724C92.3873 81.4302 92.5836 80.7009 92.5834 79.9584V25.25C92.5833 24.5197 92.3931 23.802 92.0315 23.1674C91.67 22.5329 91.1495 22.0033 90.5213 21.6309L90.5129 21.6267L90.4961 21.614L90.454 21.593L90.353 21.5341C89.8608 21.265 89.3597 21.0123 88.8506 20.7766C87.4816 20.1477 86.0764 19.601 84.6423 19.1395C79.7246 17.5859 74.5948 16.8079 69.4376 16.8334C63.0199 16.8334 57.8436 17.9738 54.2371 19.1395C52.9673 19.5462 51.7199 20.0196 50.5001 20.5577M84.1667 27.9139V73.7006C79.3934 72.2449 74.4279 71.5171 69.4376 71.5417C63.2934 71.5417 58.2897 72.5854 54.7084 73.7006V27.9139C55.2976 27.6754 56.0032 27.4215 56.8252 27.1522C60.9052 25.8679 65.1602 25.2262 69.4376 25.25C73.7149 25.2262 77.9699 25.8679 82.0499 27.1522C82.872 27.4215 83.5776 27.6754 84.1667 27.9139ZM86.2288 28.8734L86.2499 28.8818H86.2457L86.2288 28.8734ZM86.233 83.5817L86.2457 83.5902L86.2372 83.5817" fill="black"/>
</svg>
